<svg width="28" height="30" viewBox="0 0 28 30" fill="none" xmlns="http://www.w3.org/2000/svg">
<g id="Group 18344">
<g id="Vector" filter="url(#filter0_d_403_29)">
<path d="M19 23V20.6667C19 19.429 18.5259 18.242 17.682 17.3668C16.8381 16.4917 15.6935 16 14.5 16H5.5C4.30653 16 3.16193 16.4917 2.31802 17.3668C1.47411 18.242 1 19.429 1 20.6667V23" stroke="#A8A8A8" stroke-linecap="round" stroke-linejoin="round" shape-rendering="crispEdges"/>
</g>
<g id="Vector_2" filter="url(#filter1_d_403_29)">
<path d="M9.5 13C11.9853 13 14 10.7614 14 8C14 5.23858 11.9853 3 9.5 3C7.01472 3 5 5.23858 5 8C5 10.7614 7.01472 13 9.5 13Z" stroke="#A8A8A8" stroke-linecap="round" stroke-linejoin="round" shape-rendering="crispEdges"/>
</g>
</g>
<defs>
<filter id="filter0_d_403_29" x="0.5" y="13.5" width="27" height="16" filterUnits="userSpaceOnUse" color-interpolation-filters="sRGB">
<feFlood flood-opacity="0" result="BackgroundImageFix"/>
<feColorMatrix in="SourceAlpha" type="matrix" values="0 0 0 0 0 0 0 0 0 0 0 0 0 0 0 0 0 0 127 0" result="hardAlpha"/>
<feOffset dx="4" dy="2"/>
<feGaussianBlur stdDeviation="2"/>
<feComposite in2="hardAlpha" operator="out"/>
<feColorMatrix type="matrix" values="0 0 0 0 0.0182812 0 0 0 0 0.0176718 0 0 0 0 0.0176718 0 0 0 0.25 0"/>
<feBlend mode="normal" in2="BackgroundImageFix" result="effect1_dropShadow_403_29"/>
<feBlend mode="normal" in="SourceGraphic" in2="effect1_dropShadow_403_29" result="shape"/>
</filter>
<filter id="filter1_d_403_29" x="4.5" y="0.5" width="18" height="19" filterUnits="userSpaceOnUse" color-interpolation-filters="sRGB">
<feFlood flood-opacity="0" result="BackgroundImageFix"/>
<feColorMatrix in="SourceAlpha" type="matrix" values="0 0 0 0 0 0 0 0 0 0 0 0 0 0 0 0 0 0 127 0" result="hardAlpha"/>
<feOffset dx="4" dy="2"/>
<feGaussianBlur stdDeviation="2"/>
<feComposite in2="hardAlpha" operator="out"/>
<feColorMatrix type="matrix" values="0 0 0 0 0.0182812 0 0 0 0 0.0176718 0 0 0 0 0.0176718 0 0 0 0.25 0"/>
<feBlend mode="normal" in2="BackgroundImageFix" result="effect1_dropShadow_403_29"/>
<feBlend mode="normal" in="SourceGraphic" in2="effect1_dropShadow_403_29" result="shape"/>
</filter>
</defs>
</svg>
